<?xml version="1.0" encoding="utf-8"?>

<!DOCTYPE svg PUBLIC "-//W3C//DTD SVG 1.1//EN" "http://www.w3.org/Graphics/SVG/1.1/DTD/svg11.dtd">
<svg version="1.1" id="Camada_1" xmlns="http://www.w3.org/2000/svg" xmlns:xlink="http://www.w3.org/1999/xlink" x="0px" y="0px"
	 viewBox="480 0 1600 1600" enable-background="new 480 0 1600 1600" xml:space="preserve">
<path fill="#A77B2C" d="M979.2282,521.4553c3.8809,0,7.0562,3.1753,7.0562,7.0563c0,3.8809-3.1753,7.0562-7.0562,7.0562
	s-7.0562-3.1753-7.0562-7.0562C972.172,524.6306,975.3473,521.4553,979.2282,521.4553L979.2282,521.4553z M1400.8379,510.871
	c-2.4697,0-4.2338,1.7641-4.2338,4.2337s1.764,4.2337,4.2338,4.2337s4.2338-1.764,4.2338-4.2337
	S1403.3076,510.871,1400.8379,510.871L1400.8379,510.871z M1388.1367,511.5766c-3.1753,0-5.2922,2.4697-5.2922,5.645
	c0,3.1753,2.4697,5.2922,5.645,5.2922s5.2921-2.4697,5.2921-5.645C1393.4288,513.6935,1390.9592,511.5766,1388.1367,511.5766
	L1388.1367,511.5766z M1372.613,513.3407c-3.1753,0-5.2922,2.4697-5.2922,5.645s2.4697,5.2922,5.645,5.2922
	s5.2921-2.4697,5.2921-5.645C1378.2579,515.8104,1375.7882,513.3407,1372.613,513.3407L1372.613,513.3407z M1354.9724,514.7519
	c-3.5281,0-5.9978,2.8225-5.9978,5.9978c0,3.5281,2.8225,5.9977,5.9978,5.9977c3.5281,0,5.9978-2.8224,5.9978-5.9977
	S1358.1477,514.7519,1354.9724,514.7519L1354.9724,514.7519z M1335.9207,516.1631c-3.5282,0-5.9978,2.8225-5.9978,5.9978
	c0,3.5281,2.8225,5.9978,5.9978,5.9978c3.5281,0,5.9978-2.8225,5.9978-5.9978S1339.4487,516.1631,1335.9207,516.1631
	L1335.9207,516.1631z M1314.399,517.5744c-3.8809,0-6.7034,3.1753-6.7034,6.7034c0,3.881,3.1753,6.7034,6.7034,6.7034
	c3.881,0,6.7035-3.1753,6.7035-6.7034C1321.1025,520.3969,1317.9272,517.2216,1314.399,517.5744L1314.399,517.5744z
	 M1291.4663,517.5744c-3.5281,0-6.7034,3.1753-6.7034,6.7034c0,3.5281,3.1753,6.7034,6.7034,6.7034
	c3.5282,0,6.7035-3.1753,6.7035-6.7034C1298.1698,520.7498,1295.3473,517.5744,1291.4663,517.5744L1291.4663,517.5744z
	 M1159.8677,511.5766c2.4696,0,4.2338,1.7641,4.2338,4.2338s-1.7642,4.2337-4.2338,4.2337c-2.4697,0-4.2338-1.764-4.2338-4.2337
	C1155.6339,513.6935,1157.7509,511.5766,1159.8677,511.5766L1159.8677,511.5766z M1172.9216,512.2822
	c3.1753,0,5.645,2.4697,5.645,5.645c0,3.1753-2.4696,5.645-5.645,5.645c-3.1753,0-5.6449-2.4697-5.6449-5.645
	C1167.2767,514.7519,1169.7463,512.2822,1172.9216,512.2822L1172.9216,512.2822z M1188.0925,514.0463
	c3.1753,0,5.645,2.4697,5.645,5.645c0,3.1753-2.4696,5.645-5.645,5.645c-3.1752,0-5.6449-2.4697-5.6449-5.645
	C1182.8004,516.5159,1185.27,514.0463,1188.0925,514.0463L1188.0925,514.0463z M1206.0859,515.1047
	c3.5282,0,5.9978,2.8225,5.9978,5.9978c0,3.5281-2.8225,5.9977-5.9978,5.9977s-5.9977-2.8225-5.9977-5.9977
	C1199.7354,517.9272,1202.5579,515.1047,1206.0859,515.1047L1206.0859,515.1047z M1225.1378,516.5159
	c3.5281,0,5.9978,2.8225,5.9978,5.9978c0,3.5281-2.8225,5.9978-5.9978,5.9978c-3.5282,0-5.9978-2.8225-5.9978-5.9978
	C1218.7871,519.3384,1221.6096,516.5159,1225.1378,516.5159L1225.1378,516.5159z M1246.6593,517.5744
	c3.881,0,6.7034,3.1753,6.7034,6.7034c0,3.881-3.1753,6.7034-6.7034,6.7034s-6.7034-3.1753-6.7034-6.7034
	C1239.9558,520.3969,1242.7783,517.5744,1246.6593,517.5744L1246.6593,517.5744z M1269.2393,517.5744
	c3.5281,0,6.7034,2.8225,6.7034,6.7034c0,3.5281-2.8225,6.7034-6.7034,6.7034c-3.5282,0-6.7035-2.8225-6.7035-6.7034
	C1262.8885,520.3969,1265.7111,517.5744,1269.2393,517.5744L1269.2393,517.5744z M1269.592,1045.7332
	c-15.1709-12.3484-30.6946-19.0518-47.2767-15.8766c-12.3484,2.8225-20.8158,13.4069-27.1665,29.989
	c-16.2292,34.2228-32.4586,57.8611-48.688,66.3285c50.8049-4.5864,86.4388-10.9371,99.4929-20.463
	c-4.2338,20.1104-4.2338,40.2205,3.1753,59.978c5.6449,21.1686,17.6405,28.5776,17.2877,63.8589
	c4.9393-30.3418,14.4652-33.5171,25.4023-52.9218c18.3462-28.9305,19.7574-51.1577,13.0541-79.3826
	c11.6427,15.5237,35.6339,23.6384,61.0364,25.0496c15.5237,0.7057,33.1643,4.2339,49.7463,6.3506
	c-15.8765-11.6427-27.5192-22.9327-38.4564-41.6317c-7.7618-15.5237-14.1124-34.2228-26.108-46.5712
	c-5.9978-8.8202-19.0518-14.1124-35.2811-7.0562c-12.3484,3.5281-19.4047,9.1731-26.108,15.1708
	c25.7552,0,39.5149,12.3484,46.924,31.4003c-14.8181-18.3463-31.7531-28.225-51.8633-23.6384
	c9.8788,35.2811,3.881,61.7419-11.2899,83.2635c10.5844-30.6947,14.4652-59.6251,1.0585-84.6748
	c-24.344-2.8224-38.8093,9.526-51.5105,23.9912C1231.4884,1059.14,1243.1312,1047.1444,1269.592,1045.7332L1269.592,1045.7332z
	 M1135.8765,447.0121c10.2316,38.8092,25.7552,32.4586,43.043-9.5259c5.645-2.4697,11.29-5.9978,14.8181-13.054
	c2.8225-4.9394,3.5281-9.5259,2.8225-14.4653c-0.3529-2.4697-1.0585-3.5281-4.2338-3.8809
	c1.0585-7.7618-0.7056-13.7596-5.2921-17.6406c-7.4091,4.5865-11.6428,11.6428-12.3484,21.5215
	c-2.8225-0.3528-4.5867,1.7641-5.645,5.645c-1.0585,5.2922-0.3529,10.2315,1.764,15.5237c2.1168,3.1753,4.5865,5.645,8.4674,6.3506
	c20.4631,56.8026,43.7487,41.9846,63.1532-3.1753c-10.9371-4.2337-16.9349-11.6428-18.3461-21.8743
	c-1.4113-7.7618,3.1752-12.7012,8.4674-10.9371c0-14.8181,4.5865-20.4631,13.7596-20.1103
	c10.5844,0.7056,12.7012,7.7618,10.2314,18.699c7.0563-1.4113,10.2316,2.4697,8.4675,11.6428
	c-3.5282,9.5259-10.9373,17.2878-22.2272,22.2271c15.1709,45.8655,52.9218,58.5667,75.5016,0.3528
	c10.9373-4.2337,17.2877-11.6428,18.6991-21.8743c1.4111-7.7618-3.1753-12.7012-8.4675-10.9371
	c0-14.8181-4.5865-20.4631-13.7596-20.1103c-10.2314,0.7056-12.7012,7.7618-10.2314,18.699
	c-7.0563-1.4113-10.2316,2.4697-8.4674,11.6428c3.5281,9.8788,10.9371,17.2878,22.5798,22.58
	c23.2856,49.0408,42.6902,56.097,63.5061,4.9394c16.5822,40.2205,34.5756,46.9239,42.6902,8.4675
	c-5.2922-10.2315-9.1732-19.0518-8.1146-27.5193c-0.7057-4.5866-0.3529-7.7618,0-11.9956
	c3.5281,3.5281,4.5864,8.1147,5.6449,11.9956c4.5865,11.6428,5.645,18.699,2.4697,27.5193l0,0
	c1.0585,9.8788-0.7056,22.5799-4.5864,36.6924c-0.7057-0.3528-1.4113-1.0584-2.4697-1.0584
	c-4.5865,1.0584-5.9978,4.9393-6.3506,9.5259c-2.8224-0.3528-4.2338,1.0585-3.881,3.881c0.7057,4.2337,2.1169,7.0562,5.645,9.1731
	v0.3528c-88.5557,13.054-177.8169,14.4653-268.1367,0.7056v-0.3528c4.5865-2.1169,7.7618-4.9394,8.1147-10.2315
	c0-3.1753,0.3528-5.2922-3.881-4.5866c-0.7056-5.645-2.8225-8.4674-7.0563-8.8203c-1.0583,0.7056-2.1168,1.4112-2.8225,2.1169
	C1137.2877,473.1202,1136.2292,460.7718,1135.8765,447.0121l-0.3528,0.7056c-2.8225-8.1147-1.764-14.8181,2.8225-25.7552
	c1.4111-3.8809,2.4696-8.1147,5.6449-11.2899c0.3529,4.2337,0.3529,7.0562-0.3528,11.2899
	C1144.344,429.7244,1140.8159,437.839,1135.8765,447.0121L1135.8765,447.0121z M1139.7574,423.3737h1.4113v-3.1753
	C1141.1687,419.8456,1140.1102,422.6681,1139.7574,423.3737L1139.7574,423.3737z M1178.9196,407.1444l8.4674-0.7056l-2.1169-10.5844
	L1178.9196,407.1444L1178.9196,407.1444z M1251.9514,400.441l-6.7034-13.054l-8.1146,14.1125L1251.9514,400.441L1251.9514,400.441z
	 M1309.1069,400.441l14.8181,1.0584l-8.1147-14.1125L1309.1069,400.441L1309.1069,400.441z M1386.7255,409.6141
	c-0.7057-9.8788-4.9393-16.935-12.3484-21.5215c-4.5865,3.8809-6.7035,9.8788-5.2922,17.6406
	c-3.5281,0.3528-3.8809,1.4113-4.2336,3.8809c-0.7057,4.5865,0,9.5259,2.8224,14.4652c3.5282,7.0562,9.1732,10.5844,14.8181,13.054
	c3.8809-0.7056,6.3506-3.1753,8.4675-6.3506c2.1169-4.9394,2.8224-10.2315,1.764-15.5237
	C1391.3119,411.3781,1389.1952,409.2613,1386.7255,409.6141L1386.7255,409.6141z M1382.1389,406.7916l-6.3507-11.2899
	l-2.1168,10.5843L1382.1389,406.7916L1382.1389,406.7916z M1421.3009,421.9625c-0.3528-0.3528-1.764-3.5281-1.764-3.5281v3.5281
	H1421.3009L1421.3009,421.9625z M1407.5413,520.7498c-3.5281,8.4674-7.4091,17.2877-11.6427,26.4608
	c-73.3848,17.9934-150.6505,19.4047-232.5027,0c-5.2922-9.1731-9.5259-17.9934-13.0541-26.108
	C1237.4862,536.979,1322.8666,534.8622,1407.5413,520.7498L1407.5413,520.7498z M1201.4994,492.8776
	c-2.8225,0-4.2336,1.4112-3.5281,4.2337c1.0585,4.9393,3.1753,7.7618,8.4674,9.8787c4.9393-1.7641,8.4675-3.881,9.526-8.8203
	c0.3528-3.1753,1.0583-5.2922-3.1753-5.2922c0-5.645-1.7642-8.8203-5.645-9.8787
	C1202.5579,484.4101,1201.4994,488.291,1201.4994,492.8776L1201.4994,492.8776z M1205.7332,489.7023
	c-0.7056,0-1.0585,0.3528-1.0585,1.0584c0.3529,1.4112,1.0585,2.1169,2.1169,2.8225c1.4113-0.3528,2.1168-1.0584,2.4696-2.4697
	c0-0.7056,0.3529-1.4112-0.7056-1.4112c0-1.4112-0.3528-2.4697-1.4113-2.4697
	C1206.0859,487.5854,1205.7332,488.6439,1205.7332,489.7023L1205.7332,489.7023z M1274.5314,493.5832
	c-2.8225,0-4.5865,1.7641-3.881,4.5866c1.4113,5.2922,3.5282,8.4674,9.526,10.9372c5.2921-1.764,9.5259-4.2337,10.5844-9.8787
	c0.3528-3.5281,1.0583-5.9978-3.5282-5.645c0.3529-5.9978-1.764-9.8787-6.3506-10.9372
	C1275.5898,484.0573,1274.5314,488.291,1274.5314,493.5832L1274.5314,493.5832z M1278.7651,490.0551
	c-0.7057,0-1.4113,0.3528-1.0585,1.4112c0.3528,1.4112,1.0585,2.4697,2.4697,2.8225c1.4111-0.3528,2.4696-1.0584,2.8225-2.8225
	c0-1.0584,0.3528-1.4112-1.0585-1.4112c0-1.764-0.3529-2.8225-1.764-2.8225
	C1279.1179,487.5854,1278.7651,488.9967,1278.7651,490.0551L1278.7651,490.0551z M1347.5634,491.8192
	c-2.8225,0-4.2338,1.4112-3.5281,4.2337c1.0583,4.9393,3.1753,7.7618,8.4674,9.8787c4.9393-1.7641,8.4674-3.881,9.5259-8.8203
	c0.3529-3.1753,1.0585-5.2922-3.1753-5.2922c0-5.645-1.764-8.8203-5.645-9.8787
	C1348.6218,483.7045,1347.5634,487.5854,1347.5634,491.8192L1347.5634,491.8192z M1351.4443,488.9967
	c-0.7057,0-1.0585,0.3528-1.0585,1.0584c0.3528,1.4112,1.0585,2.1169,2.1168,2.8225c1.4113-0.3528,2.1169-1.0584,2.4697-2.4697
	c0-0.7056,0.3528-1.4112-0.7056-1.4112c0-1.4112-0.3529-2.4697-1.4113-2.4697
	C1351.7971,486.8798,1351.4443,487.9383,1351.4443,488.9967L1351.4443,488.9967z M1418.8313,489.7023
	c0-0.7056-0.7057-1.4112-1.4113-1.764c-1.4111,0.3528-1.764,1.4112-1.764,2.4697c-0.7057,0-1.0583,0.3528-1.0583,1.0584
	c0.3528,1.4112,0.7057,2.1169,2.1168,2.8225c0.3529,0,0.3529,0,0.7057,0C1417.7728,492.5248,1418.4785,491.1135,1418.8313,489.7023
	L1418.8313,489.7023z M1141.8743,490.0551c-0.7056,0-1.0583,0.7056-0.7056,1.0584c0.3528,1.4112,1.0585,1.7641,2.4697,2.4697
	c1.0583-0.7056,2.1168-1.4112,2.1168-2.8225c0-1.0584,0-1.4112-1.0585-1.4112c0-1.4112-0.7056-2.4697-1.764-2.4697
	C1141.8743,487.9383,1141.5215,488.9967,1141.8743,490.0551L1141.8743,490.0551z M979.2282,1078.5447
	c3.8809,0,7.0562-3.1753,7.0562-7.0563c0-3.8809-3.1753-7.0562-7.0562-7.0562s-7.0562,3.1753-7.0562,7.0562
	C972.5248,1075.3693,975.3473,1078.5447,979.2282,1078.5447L979.2282,1078.5447z M1581.1246,1078.5447
	c-3.881,0-7.0563-3.1753-7.0563-7.0563c0-3.8809,3.1753-7.0562,7.0563-7.0562c3.8809,0,7.0562,3.1753,7.0562,7.0562
	S1585.0055,1078.5447,1581.1246,1078.5447L1581.1246,1078.5447z M1929.7023,1425.0055
	c-87.4972,7.7618-147.828-28.9307-206.7476-105.1378l-110.4299-149.9448c-31.4001-39.1621-68.7982-77.2657-116.4277-103.3738
	c39.8676,27.8721,88.5557,59.6251,103.3737,134.4213c8.4674,66.6813-21.8744,129.4818-65.2701,147.8279
	c-30.6946,15.5237-82.205,9.8787-116.075-15.1708c59.6251,33.1642,124.5425,8.4674,145.7111-25.0497
	c34.2228-52.9218,29.989-122.4257,4.5865-157.7068c-2.4697-3.8809-5.2921-7.4091-8.1146-11.2899
	c42.3374,90.3197-1.764,192.2822-111.4884,187.3429c0.3528-5.9979,7.4091-16.2294,16.5822-20.8159
	c16.9349-10.2314,34.5754-19.0518,50.8048-31.0474c24.344-16.9349,42.3374-38.1035,47.9824-67.7399
	c2.8224-23.2855-2.1169-49.0408-11.6427-76.9128c-8.1146-9.8787-16.9349-19.0518-26.4609-27.5192
	c7.762,10.9371,12.3484,32.1058,10.9373,44.1013c-7.0563,31.0475-20.463,36.3396-31.7531,39.8677
	c-14.4653,4.2338-26.108,1.0585-35.2811-8.4674c-9.8788-10.9371-9.1732-26.4608-0.3529-34.2228
	c12.3484-8.8203,24.344-9.8787,34.9283-0.3528c-17.9934-3.5282-31.7531-1.4113-35.634,14.8181
	c-0.3528,11.29,6.3506,18.699,16.9349,23.2855c18.699,2.1169,30.6947-4.9393,38.8093-16.5822
	c10.2314-14.8181,7.4091-35.634,0.7056-48.688c-5.6449-11.6427-14.1124-20.8158-22.5798-27.8721
	c-76.5602-45.5126-129.4818-65.6229-222.2712-73.032c-92.7894,7.4091-145.7112,27.5193-222.2712,73.032
	c-8.8203,7.0563-17.2877,16.2294-22.5798,27.8721c-6.7035,13.0541-9.1732,33.87,0.7056,48.688
	c8.1146,11.6427,20.1102,18.699,38.8092,16.5822c10.5844-4.5864,17.2878-11.9955,16.9351-23.2855
	c-3.881-15.8766-17.6406-18.3463-35.634-14.8181c10.9371-9.526,22.58-8.4675,34.9283,0.3528
	c8.4674,7.4091,9.5259,22.9327-0.3529,34.2228c-9.1731,9.526-20.8158,12.7012-35.2811,8.4674
	c-11.2899-3.1753-24.6968-8.8202-31.7531-39.8677c-1.764-11.9955,3.1753-33.1642,10.9373-44.1013
	c-9.5259,8.8202-18.3462,17.9934-26.4609,27.5192c-9.5259,27.8721-14.4653,53.6274-11.6428,76.9128
	c5.9978,29.6362,23.9912,50.8049,47.9824,67.7399c16.5822,11.9956,33.87,20.8159,50.8048,31.0474
	c9.1732,4.9393,16.2294,14.8181,16.5822,20.8159c-109.7244,4.9393-153.8258-97.0232-111.4884-187.3429
	c-2.8225,3.5281-5.645,7.4091-8.1147,11.2899c-25.4024,35.2811-29.6362,104.785,4.5865,157.7068
	c20.8159,33.1643,86.086,57.8611,145.7111,25.0497c-33.8699,25.0496-85.3804,30.6946-116.075,15.1708
	c-43.7486-18.3462-73.7376-81.1466-65.2701-147.8279c14.4653-74.4432,63.5061-106.5492,103.3738-134.4213
	c-47.6296,26.108-85.0276,64.2118-116.4278,103.3738l-110.7828,150.2976c-58.5667,76.2074-119.2502,112.8997-206.7475,105.1378
	c41.6317-2.1169,80.0881-14.1124,114.3109-39.5149c39.5148-28.225,74.0904-63.8589,105.4906-105.1378
	c32.1058-38.1035,54.6858-80.0883,86.086-115.722c-11.9956,5.9978-33.8699,7.7618-45.8655,4.2338
	c-29.989-11.6428-33.5171-25.7552-35.2812-37.7509c-2.1168-14.8181,2.8225-26.108,13.7596-33.87
	c12.7012-8.4674,27.8721-5.2921,34.2227,4.5865c7.0562,13.7596,6.3506,25.7551-4.5865,34.9283
	c6.3506-17.2878,5.9978-31.7531-9.5259-37.751c-11.29-1.764-19.4047,3.5282-25.7552,13.7596
	c-4.9394,18.699,0.3528,31.4003,10.9371,41.2791c13.054,12.3484,34.5755,12.7012,48.688,8.1146
	c12.3484-3.881,22.9327-10.9373,31.0474-18.699c62.0948-78.6769,151.0034-115.3694,202.5137-124.8953
	c-66.6813,9.1731-131.5986,32.1058-194.0463,82.9106c20.4631-25.0496,50.8048-45.8655,88.2029-61.3892
	c-0.7057,0-1.4113,0.3529-1.7642,0.3529c-5.2921,0-9.5259-4.2338-9.5259-9.526c0-5.2921,4.2338-9.5259,9.5259-9.5259
	c5.2922,0,9.526,4.2338,9.526,9.5259c0,3.5281-1.7642,6.3506-4.2338,8.1146c4.9393-2.1168,9.8788-3.881,15.1709-5.645
	c-0.3528,0-1.0585,0-1.4113,0c-5.645,0-10.2314-4.5864-10.2314-10.2315c0-5.645,4.5865-10.2315,10.2314-10.2315
	c5.645,0,10.2316,4.5865,10.2316,10.2315c0,3.8809-2.1169,7.0562-5.2922,8.8204c57.5083-19.4047,129.129-26.8138,208.1588-18.699
	c79.0298-8.1146,150.6505-0.7056,208.1587,18.699c-3.1753-1.7642-5.2921-4.9395-5.2921-8.8204
	c0-5.645,4.5864-10.2315,10.2314-10.2315s10.2316,4.5865,10.2316,10.2315c0,5.6451-4.5865,10.2315-10.2316,10.2315
	c-0.7057,0-1.0583,0-1.4113,0c5.2922,1.764,10.2316,3.5282,15.1709,5.645c-2.4697-1.764-4.2338-4.5865-4.2338-8.1146
	c0-5.2921,4.2338-9.5259,9.5259-9.5259c5.2922,0,9.526,4.2338,9.526,9.5259c0,5.2922-4.2338,9.526-9.526,9.526
	c-0.7056,0-1.4111,0-1.764-0.3529c37.3981,15.5237,67.3871,36.3396,88.2029,61.3892
	c-62.4476-50.8048-127.7178-73.7375-194.0463-82.9106c51.1576,9.526,140.4189,46.2184,202.5137,124.8953
	c8.1146,7.7618,18.699,14.8181,31.0474,18.699c14.1125,4.9393,35.2813,4.2338,48.688-8.1146
	c10.5844-9.8787,15.8765-22.58,10.9371-41.2791c-6.3505-9.8787-14.4652-15.5237-25.7551-13.7596
	c-15.5237,6.3506-15.5237,20.4631-9.526,37.751c-11.2899-9.526-11.6427-21.1687-4.5864-34.9283
	c6.3505-9.526,21.5215-12.7013,34.2227-4.5865c10.9373,7.762,15.5237,19.0519,13.7596,33.87
	c-1.764,11.6427-4.9393,26.108-35.2811,37.7509c-11.9956,3.5281-33.5171,1.764-45.8655-4.2338
	c31.4001,35.6339,53.6274,77.6185,86.0859,115.722c31.4003,40.9261,65.9758,76.9128,105.4906,105.1378
	C1849.6141,1410.8929,1888.0706,1422.8885,1929.7023,1425.0055L1929.7023,1425.0055z M1604.0574,1208.7321
	c3.5281,38.1036-0.3529,72.6792-16.9349,101.6096c-16.2294,24.344-35.634,43.7487-62.4478,60.3308
	c-11.2899,5.9978,0.3529,12.7013,9.1732,9.526c30.6946-15.5237,46.2183-39.8677,59.2722-65.9758
	C1611.8191,1279.2943,1610.4078,1230.9591,1604.0574,1208.7321L1604.0574,1208.7321z M1635.8103,1238.0154
	c21.1687,71.6207,53.9801,133.7156,98.0815,187.3429c8.4675,12.7013,33.5171,5.9978,15.8766-15.5237
	C1685.5568,1351.6207,1653.8037,1292.7012,1635.8103,1238.0154L1635.8103,1238.0154z M1843.2634,1074.6637
	c-7.0563,36.3396-16.2294,72.3264-46.5712,94.5535c-40.5732,42.3374-123.1311,27.1665-139.3605,11.6427
	c21.1687,27.8721,111.4884,37.7509,152.4146,2.1169C1846.7915,1157.9272,1852.7894,1120.5292,1843.2634,1074.6637
	L1843.2634,1074.6637z M1534.5535,1118.7651c7.4091,18.3462,7.7618,36.6924-5.645,54.6858
	c-12.7013,13.4067-19.0519,26.4608-11.9956,37.7509c5.2922,5.2922,13.7596,3.1753,17.6406-5.9978
	c1.0583-3.1753-3.1753-5.645-4.9393-2.8225c-6.3506,12.3484-12.7013,1.764-7.4091-4.2338
	C1565.248,1161.4553,1555.7222,1138.5226,1534.5535,1118.7651L1534.5535,1118.7651z M1642.5138,1171.6869
	c22.9327,17.9934,46.9238,23.6384,76.2073-24.6968c4.9393-6.3506,16.5822-1.7642,5.2921,6.3505
	c-2.4697,2.4697,1.0585,5.9979,3.881,4.5865c8.4674-5.2921,9.1731-14.1124,3.1753-18.3462
	c-12.3484-5.2922-23.9912,2.8224-35.2811,17.6405C1679.9117,1173.4509,1661.9183,1175.9205,1642.5138,1171.6869L1642.5138,1171.6869
	z M1628.0485,1315.6339c1.4113-13.7596,3.881-29.6361,3.5281-47.2767c-3.1753-32.8114-9.8787-55.0386-18.699-72.6792
	c6.7035,23.9912,8.8203,48.688,8.1146,71.6207C1621.3451,1283.1753,1616.7585,1309.9889,1628.0485,1315.6339L1628.0485,1315.6339z
	 M1768.4675,1266.9459c-40.9261-15.8765-76.5602-37.3979-107.6075-64.9172c11.6427,17.9934,25.4025,34.2228,46.2183,45.1598
	C1725.7772,1258.1257,1746.2402,1264.4762,1768.4675,1266.9459L1768.4675,1266.9459z M1842.9106,1290.2316
	c-11.9956-19.4047-46.2184-39.8677-69.8567-21.5216C1782.9326,1295.5237,1811.8633,1299.7573,1842.9106,1290.2316
	L1842.9106,1290.2316z M1638.2799,1375.6118c9.8788-14.8181,12.7013-47.9823-8.1145-57.8611
	C1613.936,1333.9801,1619.9338,1356.9128,1638.2799,1375.6118L1638.2799,1375.6118z M1373.3186,1011.1577
	c3.5281,0,6.3506-2.8224,6.3506-6.3506c0-3.5281-2.8225-6.3505-6.3506-6.3505s-6.3506,2.8224-6.3506,6.3505
	C1366.968,1008.3351,1369.7905,1011.1577,1373.3186,1011.1577L1373.3186,1011.1577z M1396.9569,1012.2161
	c3.881,0,7.0563-3.1753,7.0563-7.0563c0-3.8809-3.1753-7.0562-7.0563-7.0562c-3.8809,0-7.0562,3.1753-7.0562,7.0562
	C1389.5479,1009.0408,1392.7233,1012.2161,1396.9569,1012.2161L1396.9569,1012.2161z M1421.3009,1015.0386
	c4.5865,0,8.4675-3.8809,8.4675-8.4674c0-4.5865-3.881-8.4675-8.4675-8.4675s-8.4674,3.8809-8.4674,8.4675
	C1412.8335,1011.5105,1416.7144,1015.0386,1421.3009,1015.0386L1421.3009,1015.0386z M1445.645,1018.9194
	c4.9393,0,9.1731-4.2338,9.1731-9.1731s-4.2338-9.1732-9.1731-9.1732s-9.1731,4.2338-9.1731,9.1732
	C1436.4719,1014.6858,1440.7056,1018.9194,1445.645,1018.9194L1445.645,1018.9194z M1469.2833,1024.5645
	c5.2921,0,9.5259-4.2338,9.5259-9.5259s-4.2338-9.526-9.5259-9.526c-5.2922,0-9.526,4.2338-9.526,9.526
	C1459.7574,1020.3307,1463.9911,1024.5645,1469.2833,1024.5645L1469.2833,1024.5645z M1530.3197,1048.5557
	c4.9393,0,9.1732-4.2338,9.1732-9.1731s-4.2339-9.1731-9.1732-9.1731s-9.1731,4.2338-9.1731,9.1731
	S1525.3802,1048.5557,1530.3197,1048.5557L1530.3197,1048.5557z M1548.313,1057.0232c4.5865,0,8.1146-3.5282,8.1146-8.1146
	c0-4.5865-3.5281-8.1146-8.1146-8.1146c-4.5864,0-8.1146,3.5281-8.1146,8.1146
	C1540.1984,1053.1422,1543.7266,1057.0232,1548.313,1057.0232L1548.313,1057.0232z M1565.248,1066.549
	c4.2338,0,7.4091-3.1753,7.4091-7.4091s-3.1753-7.4091-7.4091-7.4091s-7.4091,3.1753-7.4091,7.4091
	S1561.0143,1066.549,1565.248,1066.549L1565.248,1066.549z M956.2955,1208.7321c-6.3506,21.8744-7.7618,70.5623,10.9372,105.4906
	c12.7012,26.108,28.5777,50.452,59.2723,65.9758c9.1731,3.1753,20.463-3.5282,9.1731-9.526
	c-26.8137-16.5822-46.2183-36.3395-62.4476-60.3308C957.0011,1281.4113,953.1202,1246.8357,956.2955,1208.7321L956.2955,1208.7321z
	 M924.5424,1238.0154c-17.9933,54.6858-49.7464,113.6053-113.9581,171.8192c-17.6406,21.1687,7.409,28.225,15.8765,15.5237
	C870.5623,1371.731,903.7266,1309.6361,924.5424,1238.0154L924.5424,1238.0154z M717.4421,1074.6637
	c-9.8787,45.8655-3.5281,83.2635,33.5171,108.6659c40.9261,35.634,131.2458,25.4025,152.4145-2.1168
	c-16.2293,15.5237-98.7872,30.3418-139.3605-11.6428C733.6714,1146.9901,724.1455,1111.0033,717.4421,1074.6637L717.4421,1074.6637z
	 M1026.1521,1118.7651c-21.5215,19.7574-31.0474,42.6902,11.9956,79.0298c5.2922,5.9978-1.0585,16.5822-7.4091,4.2338
	c-2.1169-2.8225-6.3506,0-4.9393,2.8224c3.881,9.1732,12.3484,11.29,17.6406,5.9979c7.0562-11.29,1.0583-24.344-11.9956-37.7509
	C1018.3903,1155.4575,1018.7431,1137.1113,1026.1521,1118.7651L1026.1521,1118.7651z M917.839,1171.6869
	c-19.4046,4.2338-37.398,1.764-52.9217-14.4653c-11.29-14.8181-22.9327-22.9327-35.2811-17.6405
	c-5.9978,4.2338-5.2922,13.054,3.1753,18.3462c2.8225,1.764,5.9978-2.1169,3.8809-4.5865
	c-10.9371-8.1146,0.3528-12.7012,5.2922-6.3506C870.5623,1195.3252,894.9063,1189.6803,917.839,1171.6869L917.839,1171.6869z
	 M932.3043,1315.6339c10.9372-5.645,6.7034-32.4587,7.0563-47.9824c-1.0585-23.2855,1.0584-47.6295,8.1146-71.6206
	c-8.8203,17.6405-15.5237,39.5149-18.699,72.6791C928.4233,1285.9978,930.8931,1301.8743,932.3043,1315.6339L932.3043,1315.6339z
	 M791.8853,1266.9459c21.8743-2.4697,42.6902-8.8202,61.3892-19.4045c20.8159-10.9373,34.5755-27.1666,46.2183-45.1599
	C868.4454,1229.1951,832.8115,1251.0695,791.8853,1266.9459L791.8853,1266.9459z M717.4421,1290.2316
	c31.0474,9.5259,59.9779,5.2921,69.8567-21.5216C763.6604,1250.3638,729.7905,1270.4741,717.4421,1290.2316L717.4421,1290.2316z
	 M922.0728,1375.6118c18.3462-18.699,24.344-41.9845,8.1147-57.8611C909.3715,1327.6295,912.194,1360.7938,922.0728,1375.6118
	L922.0728,1375.6118z M1187.0342,1011.1577c3.5281,0,6.3506-2.8224,6.3506-6.3506c0-3.5281-2.8225-6.3505-6.3506-6.3505
	c-3.5282,0-6.3507,2.8224-6.3507,6.3505C1180.6836,1008.3351,1183.506,1011.1577,1187.0342,1011.1577L1187.0342,1011.1577z
	 M1163.3958,1012.2161c3.881,0,7.0563-3.1753,7.0563-7.0563c0-3.8809-3.1753-7.0562-7.0563-7.0562s-7.0562,3.1753-7.0562,7.0562
	C1156.3396,1009.0408,1159.5149,1012.2161,1163.3958,1012.2161L1163.3958,1012.2161z M1139.0518,1015.0386
	c4.5867,0,8.4675-3.8809,8.4675-8.4674c0-4.5865-3.881-8.4675-8.4675-8.4675c-4.5864,0-8.4674,3.8809-8.4674,8.4675
	C1130.5844,1011.5105,1134.4652,1015.0386,1139.0518,1015.0386L1139.0518,1015.0386z M1114.7078,1018.9194
	c4.9393,0,9.1731-4.2338,9.1731-9.1731s-4.2336-9.1732-9.1731-9.1732c-4.9393,0-9.1731,4.2338-9.1731,9.1732
	C1105.8875,1014.6858,1109.7684,1018.9194,1114.7078,1018.9194L1114.7078,1018.9194z M1091.4222,1024.5645
	c5.2922,0,9.5259-4.2338,9.5259-9.5259s-4.2336-9.526-9.5259-9.526c-5.2921,0-9.5259,4.2338-9.5259,9.526
	C1081.8964,1020.3307,1086.1301,1024.5645,1091.4222,1024.5645L1091.4222,1024.5645z M1030.0331,1048.5557
	c4.9393,0,9.1731-4.2338,9.1731-9.1731s-4.2338-9.1731-9.1731-9.1731s-9.1732,4.2338-9.1732,9.1731
	C1020.86,1044.3219,1025.0938,1048.5557,1030.0331,1048.5557L1030.0331,1048.5557z M1012.0397,1057.0232
	c4.5865,0,8.1147-3.5282,8.1147-8.1146c0-4.5865-3.5281-8.1146-8.1147-8.1146s-8.1147,3.5281-8.1147,8.1146
	C1003.925,1053.1422,1007.806,1057.0232,1012.0397,1057.0232L1012.0397,1057.0232z M995.1047,1066.549
	c4.2337,0,7.4091-3.1753,7.4091-7.4091s-3.1753-7.4091-7.4091-7.4091s-7.4091,3.1753-7.4091,7.4091
	S990.871,1066.549,995.1047,1066.549L995.1047,1066.549z M1580.7717,521.4553c-3.881,0-7.0563,3.1753-7.0563,7.0563
	c0,3.8809,3.1753,7.0562,7.0563,7.0562s7.0563-3.1753,7.0563-7.0562C1587.828,524.6306,1584.6527,521.4553,1580.7717,521.4553
	L1580.7717,521.4553z M1929.3494,174.9945c-87.4972-7.7619-147.8279,28.9305-206.7474,105.1378L1612.172,430.43
	c-31.4003,39.1621-68.7983,77.2657-116.4279,103.3738c39.8677-27.8721,88.5557-59.6252,103.3738-134.4212
	c8.4674-66.6814-21.8744-129.4818-65.2701-147.828c-30.6947-15.5237-82.2051-9.8787-116.075,15.1709
	c59.6251-33.1643,124.5424-8.4675,145.7111,25.0496c34.2228,52.9217,29.989,122.4256,4.5865,157.7068
	c-2.4697,3.8809-5.2922,7.4091-8.1146,11.2899c42.3374-90.3197-1.764-192.2823-111.4885-187.3429
	c0.3529,5.9978,7.4091,16.2293,16.5823,20.8159c16.9348,10.2315,34.5754,19.0518,50.8048,31.0474
	c24.344,16.935,42.3374,38.1036,47.9823,67.7398c2.8225,23.2856-2.1168,49.0408-11.6427,76.9129
	c-8.1146,9.8787-16.9349,19.0518-26.4608,27.5193c7.7618-10.9372,12.3484-32.1059,10.9371-44.1014
	c-7.0562-31.0474-20.463-36.3396-31.7531-39.8677c-14.4652-4.2337-26.108-1.0584-35.2811,8.4675
	c-9.8787,10.9371-9.1731,26.4608-0.3528,34.2227c12.3484,8.8203,24.344,9.8787,34.9283,0.3528
	c-17.9934,3.5281-31.7531,1.4112-35.634-14.8181c-0.3528-11.2899,6.3506-18.699,16.9349-23.2856
	c18.699-2.1169,30.6946,4.9394,38.8092,16.5821c10.2316,14.8181,7.4091,35.634,0.7057,48.688
	c-5.645,11.6428-14.1124,20.8159-22.58,27.8721c-76.5601,45.5126-129.4817,65.623-222.2711,73.032
	c-92.7894-7.4091-145.7112-27.5193-222.2712-73.032c-8.8203-7.0562-17.2877-16.2293-22.58-27.8721
	c-6.7034-13.054-9.1731-33.8699,0.7056-48.688c8.1147-11.6428,20.1104-18.699,38.8093-16.5822
	c10.5844,4.5866,17.2877,11.9956,16.9349,23.2856c-3.881,15.8765-17.6405,18.3462-35.6339,14.8181
	c10.9371,9.5259,22.5798,8.4674,34.9282-0.3528c8.4675-7.409,9.5259-22.9327-0.3528-34.2227
	c-9.1731-9.5259-20.8159-12.7012-35.2811-8.4675c-11.29,3.1753-24.6968,8.8203-31.7531,39.8677
	c-1.764,11.9956,3.1753,33.1643,10.9371,44.1014c-9.5259-8.8203-18.3461-17.9934-26.4608-27.5193
	c-9.5259-27.8721-14.4653-53.6273-11.6428-76.9129c5.9978-29.6362,23.9912-50.8048,47.9824-67.7398
	c16.5822-11.9956,33.8699-20.8159,50.8048-31.0474c9.1731-4.9394,16.2294-14.8181,16.5822-20.8159
	c-109.7244-4.9394-153.8259,97.0232-111.4885,187.3429c-2.8225-3.5281-5.645-7.4091-8.1147-11.2899
	c-25.4024-35.2812-29.6361-104.785,4.5865-157.7067c20.8159-33.1643,86.0859-57.8611,145.7112-25.0496
	c-33.87-25.0496-85.3804-30.6946-116.0751-15.1709c-43.7485,18.3462-73.7375,81.1466-65.2701,147.828
	c14.4653,74.4432,63.506,106.5491,103.3738,134.4212c-47.6296-26.108-85.0276-64.2116-116.4279-103.3737L837.3979,280.1324
	c-58.5667-76.2073-119.2502-112.8997-206.7475-105.1378c41.6317,2.1169,80.0882,14.1125,114.3109,39.5149
	c39.5148,28.2249,74.0904,63.8589,105.4906,105.1378c32.1058,38.1037,54.6858,80.0882,86.086,115.7222
	c-11.9956-5.9978-33.8699-7.7618-45.8655-4.2337c-29.989,11.6428-33.5171,25.7552-35.2812,37.7508
	c-2.1168,14.8181,2.8225,26.108,13.7597,33.8699c12.7012,8.4674,27.8721,5.2922,34.2227-4.5866
	c7.0563-13.7596,6.3506-25.7552-4.5865-34.9283c6.3506,17.2878,5.9978,31.7531-9.5259,37.7508
	c-11.29,1.7641-19.4047-3.5281-25.7552-13.7596c-4.9394-18.699,0.3528-31.4002,10.9371-41.2789
	c13.054-12.3484,34.5756-12.7012,48.688-8.1147c12.3484,3.8809,22.9327,10.9372,31.0474,18.699
	c62.0948,78.677,151.0033,115.3693,202.5138,124.8953c-66.6814-9.1732-131.5988-32.1059-194.0463-82.9107
	c20.4631,25.0496,50.8048,45.8655,88.2028,61.3892c-0.7056,0-1.4113-0.3528-1.764-0.3528c-5.2921,0-9.5259,4.2338-9.5259,9.5259
	s4.2338,9.5259,9.5259,9.5259c5.2922,0,9.5259-4.2337,9.5259-9.5259c0-3.5281-1.764-6.3506-4.2336-8.1147
	c4.9393,2.1169,9.8787,3.8809,15.1709,5.645c-0.3529,0-1.0585,0-1.4113,0c-5.645,0-10.2316,4.5865-10.2316,10.2315
	s4.5865,10.2315,10.2316,10.2315s10.2314-4.5866,10.2314-10.2315c0-3.881-2.1168-7.0563-5.2921-8.8203
	c57.5083,19.4046,129.1289,26.8137,208.1587,18.699c79.0298,8.1147,150.6505,0.7056,208.1588-18.699
	c-3.1752,1.764-5.2921,4.9393-5.2921,8.8203c0,5.645,4.5865,10.2315,10.2316,10.2315c5.6449,0,10.2314-4.5866,10.2314-10.2315
	c0-5.645-4.5865-10.2315-10.2314-10.2315c-0.7057,0-1.0585,0-1.4113,0c5.2921-1.7641,10.2314-3.5281,15.1708-5.645
	c-2.4697,1.764-4.2338,4.5865-4.2338,8.1147c0,5.2922,4.2338,9.5259,9.526,9.5259c5.2921,0,9.5259-4.2337,9.5259-9.5259
	s-4.2338-9.5259-9.5259-9.5259c-0.7057,0-1.4113,0-1.764,0.3528c37.3979-15.5237,67.387-36.3396,88.2029-61.3892
	c-62.4478,50.8048-127.7179,73.7375-194.0464,82.9107c51.1577-9.5259,140.4189-46.2183,202.5138-124.8953
	c8.1146-7.7618,18.699-14.8181,31.0474-18.699c14.1124-4.9394,35.2811-4.2337,48.688,8.1147
	c10.5842,9.8787,15.8765,22.5799,10.9371,41.2789c-6.3506,9.8787-14.4653,15.5237-25.7552,13.7596
	c-15.5237-6.3506-15.5237-20.4631-9.5259-37.7508c-11.29,9.5259-11.6428,21.1687-4.5865,34.9283
	c6.3506,9.5259,21.5215,12.7012,34.2228,4.5866c10.9371-7.7618,15.5237-19.0518,13.7596-33.8699
	c-1.764-11.6428-4.9393-26.1081-35.2811-37.7508c-11.9956-3.5281-33.5171-1.764-45.8656,4.2337
	c31.4003-35.6339,53.6274-77.6185,86.0861-115.7222c31.4001-40.9261,65.9757-76.9129,105.4906-105.1378
	C1849.2612,189.1069,1887.7177,177.1114,1929.3494,174.9945L1929.3494,174.9945z M1603.7045,391.2679
	c3.5281-38.1036-0.3528-72.6792-16.9349-101.6097c-16.2292-24.344-35.6339-43.7486-62.4476-60.3308
	c-11.29-5.9978,0.3528-12.7012,9.1731-9.5259c30.6947,15.5237,46.2184,39.8677,59.2723,65.9758
	C1611.4664,320.7056,1610.0551,369.3936,1603.7045,391.2679L1603.7045,391.2679z M1635.4575,361.9846
	c21.1687-71.6207,53.9801-133.7156,98.0815-187.3429c8.4674-12.7012,33.5171-5.9978,15.8765,15.5237
	C1685.5568,248.7321,1653.4509,307.2988,1635.4575,361.9846L1635.4575,361.9846z M1842.9106,525.3362
	c-7.0563-36.3396-16.2294-72.3264-46.5712-94.5535c-40.5734-42.3374-123.1312-27.1665-139.3606-11.6428
	c21.1687-27.8721,111.4885-37.7508,152.4147-2.1169C1846.4387,442.4256,1852.7894,479.4707,1842.9106,525.3362L1842.9106,525.3362z
	 M1534.2006,481.5876c7.4091-18.3462,7.762-36.6924-5.645-54.6858c-12.7012-13.4068-19.0518-26.4608-11.9955-37.7508
	c5.2921-5.2921,13.7595-3.1753,17.6405,5.9978c1.0585,3.1753-3.1753,5.645-4.9393,2.8225
	c-6.3506-12.3484-12.7012-1.7641-7.4091,4.2337C1565.248,438.8975,1555.7222,461.8302,1534.2006,481.5876L1534.2006,481.5876z
	 M1642.5138,428.3131c22.9327-17.9934,46.9238-23.6384,76.2073,24.6968c4.9393,6.3506,16.5822,1.7641,5.2921-6.3506
	c-2.4697-2.4697,1.0585-5.9978,3.881-4.5865c8.4674,5.2921,9.1731,14.1125,3.1753,18.3462
	c-12.3484,5.2922-23.9912-2.8225-35.2811-17.6406C1679.9117,426.9019,1661.9183,424.0793,1642.5138,428.3131L1642.5138,428.3131z
	 M1627.6957,284.366c1.4111,13.7596,3.8809,29.6362,3.5281,47.2767c-3.1753,32.8115-9.8787,55.0386-18.699,72.6792
	c6.7034-23.9912,8.8203-48.688,8.1146-71.6207C1620.9922,316.8247,1616.7585,290.011,1627.6957,284.366L1627.6957,284.366z
	 M1768.1146,333.4068c-40.9261,15.8765-76.5601,37.398-107.6074,64.9173c11.6427-17.9934,25.4025-34.2227,46.2183-45.1599
	C1725.7772,341.8743,1746.2402,335.5237,1768.1146,333.4068L1768.1146,333.4068z M1842.5579,310.1213
	c-11.9955,19.4046-46.2183,39.8677-69.8566,21.5215C1782.58,304.8291,1811.5104,300.5953,1842.5579,310.1213L1842.5579,310.1213z
	 M1637.9272,224.3881c9.8787,14.8181,12.7012,47.9823-8.1146,57.8611C1613.936,266.3727,1619.9338,243.4399,1637.9272,224.3881
	L1637.9272,224.3881z M1372.9658,588.8423c3.5281,0,6.3506,2.8225,6.3506,6.3506c0,3.5281-2.8225,6.3506-6.3506,6.3506
	s-6.3506-2.8225-6.3506-6.3506C1366.6152,591.6648,1369.4377,588.8423,1372.9658,588.8423L1372.9658,588.8423z M1396.6041,587.7839
	c3.881,0,7.0563,3.1752,7.0563,7.0562c0,3.8809-3.1753,7.0562-7.0563,7.0562s-7.0563-3.1753-7.0563-7.0562
	C1389.5479,590.9592,1392.7233,587.7839,1396.6041,587.7839L1396.6041,587.7839z M1421.3009,584.9614
	c4.5865,0,8.4675,3.8809,8.4675,8.4674c0,4.5866-3.881,8.4675-8.4675,8.4675s-8.4674-3.8809-8.4674-8.4675
	S1416.3616,584.9614,1421.3009,584.9614L1421.3009,584.9614z M1445.2921,581.0804c4.9393,0,9.1732,4.2338,9.1732,9.1732
	c0,4.9393-4.2339,9.1731-9.1732,9.1731s-9.1731-4.2337-9.1731-9.1731S1440.3528,581.0804,1445.2921,581.0804L1445.2921,581.0804z
	 M1468.9304,575.4355c5.2922,0,9.526,4.2338,9.526,9.5259s-4.2338,9.5259-9.526,9.5259c-5.2921,0-9.5259-4.2337-9.5259-9.5259
	C1459.4047,580.022,1463.6383,575.4355,1468.9304,575.4355L1468.9304,575.4355z M1529.9669,551.7971
	c4.9393,0,9.1731,4.2337,9.1731,9.1731c0,4.9393-4.2338,9.1731-9.1731,9.1731s-9.1731-4.2337-9.1731-9.1731
	C1521.1466,555.678,1525.0276,551.7971,1529.9669,551.7971L1529.9669,551.7971z M1547.9603,543.3297
	c4.5865,0,8.1146,3.5281,8.1146,8.1147c0,4.5865-3.5281,8.1146-8.1146,8.1146s-8.1146-3.5281-8.1146-8.1146
	C1539.8456,546.8577,1543.3737,543.3297,1547.9603,543.3297L1547.9603,543.3297z M1564.8953,533.4509
	c4.2338,0,7.4091,3.1753,7.4091,7.4091c0,4.2337-3.1753,7.4091-7.4091,7.4091s-7.4091-3.1753-7.4091-7.4091
	C1557.4862,536.979,1561.0143,533.4509,1564.8953,533.4509L1564.8953,533.4509z M956.2955,391.2679
	c-6.3506-21.8743-7.7618-70.5623,10.9372-105.4906c12.7012-26.1081,28.5777-50.4521,59.2723-65.9758
	c9.1731-3.1753,20.463,3.5281,9.1731,9.5259c-26.8137,16.5821-46.2183,36.3396-62.4476,60.3307
	C956.6483,318.5887,952.7673,353.1643,956.2955,391.2679L956.2955,391.2679z M924.5424,361.9846
	c-17.9933-54.6858-49.7464-113.6053-113.9581-171.8192c-17.6406-21.1687,7.409-28.2249,15.8765-15.5237
	C870.5623,228.269,903.3737,290.3638,924.5424,361.9846L924.5424,361.9846z M717.0893,525.3362
	c-9.8787-45.8655-3.5281-83.2635,33.5171-108.666c40.9261-35.6339,131.2458-25.4024,152.4146,2.1169
	c-16.2294-15.5237-98.7872-30.3418-139.3605,11.6428C733.3187,453.0099,723.7927,488.9967,717.0893,525.3362L717.0893,525.3362z
	 M1025.7993,481.5876c-21.5215-19.7575-31.0474-42.6902,11.9956-79.0298c5.2921-5.9978-1.0585-16.5821-7.4091-4.2337
	c-2.1169,2.8225-6.3507,0-4.9393-2.8225c3.8809-9.1731,12.3484-11.29,17.6405-5.9978c7.0563,11.29,1.0585,24.344-11.9956,37.7508
	C1018.0375,444.8952,1018.3903,462.8886,1025.7993,481.5876L1025.7993,481.5876z M917.4862,428.3131
	c-19.4046-4.2337-37.398-1.7641-52.9217,14.4653c-11.29,14.8181-22.9328,22.9327-35.2812,17.6406
	c-5.9977-4.2337-5.2922-13.054,3.1754-18.3462c2.8224-1.764,5.9977,2.1169,3.8809,4.5866
	c-10.9372,8.1147,0.3528,12.7012,5.2921,6.3506C870.5623,404.6747,894.5535,410.3197,917.4862,428.3131L917.4862,428.3131z
	 M932.3043,284.366c10.9372,5.645,6.7034,32.4586,7.0563,47.9824c-1.0585,23.2856,1.0584,47.6295,8.1146,71.6207
	c-8.8203-17.6406-15.5237-39.5149-18.699-72.6792C928.4233,314.0022,930.8931,298.4785,932.3043,284.366L932.3043,284.366z
	 M791.8853,333.4068c21.8743,2.4697,42.6902,8.8203,61.3892,19.4046c20.8159,10.9371,34.5755,27.1665,46.2183,45.1599
	C868.0926,370.8048,832.4587,348.9305,791.8853,333.4068L791.8853,333.4068z M717.4421,310.1213
	c31.0474-9.5259,59.9779-5.2922,69.8567,21.5215C763.6604,349.989,729.4377,329.5259,717.4421,310.1213L717.4421,310.1213z
	 M922.0728,224.3881c18.3462,18.699,24.344,41.9846,8.1147,57.8611C909.0187,272.3704,911.8412,239.559,922.0728,224.3881
	L922.0728,224.3881z M1186.6814,588.8423c3.5281,0,6.3506,2.8225,6.3506,6.3506c0,3.5281-2.8225,6.3506-6.3506,6.3506
	c-3.5282,0-6.3507-2.8225-6.3507-6.3506C1180.6836,591.6648,1183.506,588.8423,1186.6814,588.8423L1186.6814,588.8423z
	 M1163.3958,587.7839c3.881,0,7.0563,3.1752,7.0563,7.0562c0,3.8809-3.1753,7.0562-7.0563,7.0562s-7.0562-3.1753-7.0562-7.0562
	C1156.3396,590.9592,1159.5149,587.7839,1163.3958,587.7839L1163.3958,587.7839z M1138.699,584.9614
	c4.5865,0,8.4674,3.8809,8.4674,8.4674c0,4.5866-3.8809,8.4675-8.4674,8.4675s-8.4674-3.8809-8.4674-8.4675
	S1134.1124,584.9614,1138.699,584.9614L1138.699,584.9614z M1114.7078,581.0804c4.9393,0,9.1731,4.2338,9.1731,9.1732
	c0,4.9393-4.2336,9.1731-9.1731,9.1731c-4.9393,0-9.1731-4.2337-9.1731-9.1731S1109.4156,581.0804,1114.7078,581.0804
	L1114.7078,581.0804z M1091.0695,575.4355c5.2921,0,9.5259,4.2338,9.5259,9.5259s-4.2338,9.5259-9.5259,9.5259
	c-5.2922,0-9.5259-4.2337-9.5259-9.5259C1081.5436,580.022,1085.7772,575.4355,1091.0695,575.4355L1091.0695,575.4355z
	 M1029.6803,551.7971c4.9393,0,9.1731,4.2337,9.1731,9.1731c0,4.9393-4.2338,9.1731-9.1731,9.1731s-9.1732-4.2337-9.1732-9.1731
	C1020.86,555.678,1024.7408,551.7971,1029.6803,551.7971L1029.6803,551.7971z M1012.0397,543.3297
	c4.5865,0,8.1147,3.5281,8.1147,8.1147c0,4.5865-3.5281,8.1146-8.1147,8.1146s-8.1147-3.5281-8.1147-8.1146
	C1003.925,546.8577,1007.4531,543.3297,1012.0397,543.3297L1012.0397,543.3297z M994.7519,533.4509
	c4.2337,0,7.4091,3.1753,7.4091,7.4091c0,4.2337-3.1753,7.4091-7.4091,7.4091c-4.2337,0-7.4091-3.1753-7.4091-7.4091
	C987.3429,536.979,990.871,533.4509,994.7519,533.4509z"/>
</svg>
